<svg xmlns="http://www.w3.org/2000/svg" width="108" height="108" viewBox="0 0 108 108">
  <defs>
    <style>
      .cls-1 {
        fill: #ffa180;
      }

      .cls-2 {
        fill: #fff;
        fill-rule: evenodd;
      }
    </style>
  </defs>
  <title>复制icon</title>
  <g id="图层_2" data-name="图层 2">
    <g id="简历预览">
      <g id="窗口2">
        <g>
          <circle class="cls-1" cx="54" cy="54" r="54"/>
          <path class="cls-2" d="M72.08,78.68h5.33a1.15,1.15,0,0,0,1.15-1.15V26.64a1.15,1.15,0,0,0-1.15-1.15h-40a1.15,1.15,0,0,0-1.15,1.15v5.48H72.08V78.68ZM65,36.92H30.79a2.27,2.27,0,0,0-2.23,2.3V81.31a2.27,2.27,0,0,0,2.23,2.3H65a2.27,2.27,0,0,0,2.23-2.3V39.22A2.27,2.27,0,0,0,65,36.92ZM60.87,70H35a1.77,1.77,0,0,1,0-3.53H60.87a1.76,1.76,0,0,1,0,3.53Zm0-9.77H35a1.76,1.76,0,1,1,0-3.53H60.87a1.76,1.76,0,0,1,0,3.53Zm0-9.67H35a1.76,1.76,0,1,1,0-3.53H60.87a1.76,1.76,0,1,1,0,3.53Z"/>
        </g>
      </g>
    </g>
  </g>
</svg>
