<svg xmlns="http://www.w3.org/2000/svg" viewBox="0 0 200 332.19"><defs><style>.cls-1{fill:#ffb153;}.cls-2{fill:#21c6cd;}.cls-3{fill:#35cffe;}.cls-4{fill:#394a58;}</style></defs><title>资源 86</title><g id="图层_2" data-name="图层 2"><g id="登录"><g id="Group-10"><g id="Group-7"><path id="Fill-1" class="cls-1" d="M128.4.14a5.44,5.44,0,0,0-5.24,4.2L107.8,70.65,132.76.1Z"/><polygon id="Fill-3" class="cls-1" points="142.05 0.02 133.57 0.1 107.04 75.11 142.05 0.02"/><path id="Fill-5" class="cls-1" d="M143.52,0h-.62L109.11,72.49l39.1-64.24A5.43,5.43,0,0,0,143.52,0"/><g id="Group-9"><polygon id="Fill-7" class="cls-2" points="0 114.68 0 127.72 103.49 78.01 0 114.68"/></g><path id="Fill-10" class="cls-2" d="M11.06,134.73l88.7-54.09L0,128.56a7.28,7.28,0,0,0,11.06,6.17"/><path id="Fill-12" class="cls-2" d="M5.68,99.41A7.27,7.27,0,0,0,0,106.51v7.35l101.69-36Z"/><path id="Fill-14" class="cls-1" d="M45.24,197.15c.36.26.68.54,1.06.77l11.57,6.61a12.37,12.37,0,0,0,2,.85L104.71,79.75Z"/><path id="Fill-16" class="cls-1" d="M41.74,179.81a12.93,12.93,0,0,0,2.87,16.89L102.48,82.45Z"/><g id="Group-20"><path id="Fill-18" class="cls-1" d="M60.57,205.67a12.94,12.94,0,0,0,16.31-9.33L104.5,82.61Z"/></g><path id="Fill-21" class="cls-3" d="M196.25,176.6a12.07,12.07,0,0,0-.2-17.67L110,80.69l83.79,98.24Z"/><polygon id="Fill-23" class="cls-3" points="181.84 190.32 193.25 179.46 107.39 78.78 181.84 190.32"/><path id="Fill-25" class="cls-3" d="M162.73,187.14a12,12,0,0,0,18.49,3.65L109.27,83Z"/><path id="Fill-27" class="cls-2" d="M189.81,35a7.77,7.77,0,0,0-10.76-2.71L109.4,74.68l82-37Z"/><path id="Fill-29" class="cls-2" d="M112.27,75.46l79.1-17.75a7.71,7.71,0,0,0,5.39-10.59Z"/><path id="Fill-31" class="cls-2" d="M196.45,46.41c0-.06,0-.12-.08-.18l-4.63-7.92L108.62,75.88Z"/></g></g><path id="大招一百" class="cls-4" d="M22.53,267.87H2.43q-1.5,0-1.5-1.19t1.5-1.24h20.2V254.92q0-1.4.88-1.4a1.5,1.5,0,0,1,1.14.31,1.73,1.73,0,0,1,.26,1.09v10.52H44.65q1.4,0,1.4,1.24t-1.4,1.19H24.86a2.08,2.08,0,0,0-.05.57Q30,288,44.13,298.59q2,1.5,2,2a1.33,1.33,0,0,1-.36,1,1.06,1.06,0,0,1-.8.41,3.71,3.71,0,0,1-1.53-.67,18,18,0,0,1-1.63-1.24q-1.06-.88-2.67-2.38a45.54,45.54,0,0,1-6.06-6.79,53.8,53.8,0,0,1-5.18-8.29A68.15,68.15,0,0,1,24,273.21a40.37,40.37,0,0,1-6.73,14.92,46.6,46.6,0,0,1-9.89,10.2q-5.18,3.83-6.48,3.83a.75.75,0,0,1-.7-.41,1.68,1.68,0,0,1-.23-.83q0-.93,1.61-1.76a35.91,35.91,0,0,0,14-12.79A42,42,0,0,0,22.53,267.87Zm38.59,10.41a26.43,26.43,0,0,0,2.51-1.94A25.29,25.29,0,0,0,66,274a1.18,1.18,0,0,1,1.4-.41q.73.31.73.88a1.46,1.46,0,0,1-.47.83,17.51,17.51,0,0,1-2.33,2.18q-.93.83-2,1.61t-2.23,1.55v16.73A4.5,4.5,0,0,1,60,300.58a4.34,4.34,0,0,1-3.29,1.17,11.94,11.94,0,0,1-3.06-.52q-2-.47-2-1.4a1,1,0,0,1,.67-1.06,1.91,1.91,0,0,1,1.35,0,8.88,8.88,0,0,0,3.06.73q2.28,0,2.28-2.38V281.91a41.75,41.75,0,0,1-4.9,2.46,10.61,10.61,0,0,1-2.62.85.75.75,0,0,1-.7-.41,1.48,1.48,0,0,1-.23-.67q0-.78,1.55-1.35a38.82,38.82,0,0,0,6.89-3.16V265.7H52q-1,0-1-1t1-1h7v-8.91q0-1,1-1t1,1v8.91h6.63a1,1,0,0,1,0,2.07H61.12Zm17.09-19.74h-8.5q-1,0-1-1t1-1H93.91a3.64,3.64,0,0,1,3,1.11,5.59,5.59,0,0,1,.93,3.6q0,9.17-2,12.48t-7.2,3.26a28.37,28.37,0,0,1-4.82-.52q-3-.52-3-1.66t.93-1.14a6,6,0,0,1,1.5.31,18.62,18.62,0,0,0,5.54,1,6.8,6.8,0,0,0,4-1.09q1.5-1.09,2.23-4.61a32.29,32.29,0,0,0,.52-3.34q.16-1.58.16-3t-.08-2.25a3.4,3.4,0,0,0-.34-1.32,1.28,1.28,0,0,0-.73-.62,4,4,0,0,0-1.24-.16H80.45A40.15,40.15,0,0,1,78,268.44a22.71,22.71,0,0,1-4.87,7.25q-3.21,3.21-4,3.21a2.83,2.83,0,0,1-.47-.23,1,1,0,0,1-.44-.47,1,1,0,0,1,.05-.75,2.93,2.93,0,0,1,1-1.09q4.92-4,6.63-7.93A37.44,37.44,0,0,0,78.22,258.55ZM97,297.86a3.94,3.94,0,0,1-.78,2.77,3.42,3.42,0,0,1-2.54.8H73.87a3.48,3.48,0,0,1-2.56-.78,4,4,0,0,1-.75-2.8V283.31a3.93,3.93,0,0,1,.75-2.75,3.48,3.48,0,0,1,2.56-.78H93.5A3,3,0,0,1,97,283.31Zm-2.12-.41V283.67q0-1.81-1.66-1.81h-19q-1.55,0-1.55,1.81v13.78a2,2,0,0,0,.47,1.37,1.4,1.4,0,0,0,1.09.54h19Q94.9,299.37,94.9,297.45Zm55.17-20.72q1,0,1,1.19t-1,1.19H103.13q-1,0-1-1.19t1-1.19ZM178,259.64H157.68q-.88,0-.88-1.09t.88-1.09h41.39q.93,0,.93,1.09t-.93,1.09H180.16a44.75,44.75,0,0,1-2.9,8.24h16.63a3.48,3.48,0,0,1,2.56.78,3.84,3.84,0,0,1,.75,2.69v26.73a3.57,3.57,0,0,1-.8,2.67,4,4,0,0,1-2.77.75H163.22A2.83,2.83,0,0,1,159.8,298V271.34q0-2.12.78-2.8a4,4,0,0,1,2.59-.67H175A28.9,28.9,0,0,0,178,259.64Zm-16,22.74h33V271.91q0-1.92-1.76-1.92H163.64q-1.66,0-1.66,2Zm33,2.12H162v12.79a2.22,2.22,0,0,0,.47,1.45,1.47,1.47,0,0,0,1.19.57h29.58q1.81,0,1.81-2Z"/><path id="www.dazhao100.com" class="cls-4" d="M5.79,330.18l2.8-8.94a2.15,2.15,0,0,1,.25-.57.35.35,0,0,1,.29-.12.36.36,0,0,1,.31.13,2.42,2.42,0,0,1,.25.58l2.9,8.9,2.86-8.92q.23-.68.62-.68t.51.41a2.84,2.84,0,0,1-.19.83l-.34,1-2.77,8.41a1.39,1.39,0,0,1-.27.52.63.63,0,0,1-.46.14.57.57,0,0,1-.47-.16,1.34,1.34,0,0,1-.21-.5l-2.71-8.79-2.33,7.53q-.13.43-.21.78a4.12,4.12,0,0,1-.19.61,1.12,1.12,0,0,1-.26.39.54.54,0,0,1-.38.14.68.68,0,0,1-.42-.11,1.26,1.26,0,0,1-.29-.55L2.29,322.8l-.15-.47-.17-.5q-.09-.25-.14-.46a1.49,1.49,0,0,1-.05-.34q0-.47.53-.47t.58.62Zm15.73,0,2.8-8.94a2.15,2.15,0,0,1,.25-.57.35.35,0,0,1,.29-.12.36.36,0,0,1,.31.13,2.42,2.42,0,0,1,.25.58l2.9,8.9,2.86-8.92q.23-.68.62-.68t.51.41a2.84,2.84,0,0,1-.19.83l-.34,1L29,331.21a1.39,1.39,0,0,1-.27.52.63.63,0,0,1-.46.14.57.57,0,0,1-.47-.16,1.34,1.34,0,0,1-.21-.5l-2.71-8.79-2.33,7.53q-.13.43-.21.78a4.11,4.11,0,0,1-.19.61,1.12,1.12,0,0,1-.26.39.54.54,0,0,1-.38.14.68.68,0,0,1-.42-.11,1.26,1.26,0,0,1-.29-.55L18,322.8l-.15-.47-.17-.5q-.09-.25-.14-.46a1.49,1.49,0,0,1-.05-.34q0-.47.53-.47t.58.62Zm15.73,0,2.8-8.94a2.15,2.15,0,0,1,.25-.57.35.35,0,0,1,.29-.12.36.36,0,0,1,.31.13,2.42,2.42,0,0,1,.25.58l2.9,8.9,2.86-8.92q.23-.68.62-.68T48,321a2.84,2.84,0,0,1-.19.83l-.34,1-2.77,8.41a1.39,1.39,0,0,1-.27.52.63.63,0,0,1-.46.14.57.57,0,0,1-.47-.16,1.34,1.34,0,0,1-.21-.5l-2.71-8.79-2.33,7.53q-.13.43-.21.78a4.12,4.12,0,0,1-.19.61,1.12,1.12,0,0,1-.26.39.54.54,0,0,1-.38.14.68.68,0,0,1-.42-.11,1.26,1.26,0,0,1-.29-.55l-2.77-8.41-.15-.47-.17-.5q-.09-.25-.14-.46a1.49,1.49,0,0,1-.05-.34q0-.47.53-.47t.58.62Zm13,.53a.89.89,0,0,1,.29-.66.91.91,0,0,1,.65-.28.94.94,0,0,1,.67.28.89.89,0,0,1,.29.66.9.9,0,0,1-.29.65.92.92,0,0,1-.67.29,1,1,0,0,1-.94-.94Zm5.63-4.44a6.64,6.64,0,0,0,.27,1.94,4.73,4.73,0,0,0,.76,1.52,3.36,3.36,0,0,0,1.22,1,3.77,3.77,0,0,0,1.66.35,3.21,3.21,0,0,0,1.6-.38,3.35,3.35,0,0,0,1.13-1,4.74,4.74,0,0,0,.67-1.53,7.37,7.37,0,0,0,.22-1.84,7,7,0,0,0-.25-1.86,5.32,5.32,0,0,0-.71-1.59,3.61,3.61,0,0,0-1.15-1.1,3,3,0,0,0-1.56-.41,3.85,3.85,0,0,0-1.76.37,3.27,3.27,0,0,0-1.21,1,4.43,4.43,0,0,0-.68,1.57A8.51,8.51,0,0,0,55.86,326.28Zm7.49,3.16a5.3,5.3,0,0,1-1.46,1.82,3.7,3.7,0,0,1-2.36.71,4.25,4.25,0,0,1-1.91-.43,4.54,4.54,0,0,1-1.49-1.18,5.42,5.42,0,0,1-1-1.8,7.32,7.32,0,0,1-.34-2.28,7.77,7.77,0,0,1,.39-2.6,5.34,5.34,0,0,1,1.06-1.84,4.06,4.06,0,0,1,1.54-1.07,4.77,4.77,0,0,1,1.86-.32,3.61,3.61,0,0,1,1.31.23,3.91,3.91,0,0,1,1.08.62,4.3,4.3,0,0,1,.81.88,4.4,4.4,0,0,1,.53,1v-6.49q0-.68.49-.68t.49.68v14.45q0,.68-.51.68t-.51-.68Zm4.35-3.16a6.64,6.64,0,0,0,.27,1.94,4.73,4.73,0,0,0,.76,1.52,3.36,3.36,0,0,0,1.22,1,3.77,3.77,0,0,0,1.66.35,3.21,3.21,0,0,0,1.6-.38,3.35,3.35,0,0,0,1.13-1,4.74,4.74,0,0,0,.67-1.53,7.37,7.37,0,0,0,.22-1.84,7,7,0,0,0-.25-1.86,5.32,5.32,0,0,0-.71-1.59,3.61,3.61,0,0,0-1.15-1.1,3,3,0,0,0-1.56-.41,3.85,3.85,0,0,0-1.76.37,3.27,3.27,0,0,0-1.21,1,4.43,4.43,0,0,0-.68,1.57A8.51,8.51,0,0,0,67.71,326.28Zm7.49,3.16a5.3,5.3,0,0,1-1.46,1.82,3.7,3.7,0,0,1-2.36.71,4.25,4.25,0,0,1-1.91-.43A4.54,4.54,0,0,1,68,330.36a5.42,5.42,0,0,1-1-1.8,7.32,7.32,0,0,1-.34-2.28,7.77,7.77,0,0,1,.39-2.6,5.34,5.34,0,0,1,1.06-1.84,4.06,4.06,0,0,1,1.54-1.07,4.77,4.77,0,0,1,1.86-.32,3.61,3.61,0,0,1,1.31.23,3.91,3.91,0,0,1,1.08.62,4.3,4.3,0,0,1,.81.88,4.4,4.4,0,0,1,.53,1v-2q0-.68.49-.68t.49.68v9.92q0,.68-.51.68t-.51-.68Zm3.86,1.24h6.66q.68,0,.68.49a.44.44,0,0,1-.15.38,1,1,0,0,1-.53.11H79.11Q78,331.66,78,331a1.48,1.48,0,0,1,.34-.83l6.74-8.3H78.64q-.68,0-.68-.49t.68-.49H85q1.13,0,1.13.64a1.48,1.48,0,0,1-.34.83Zm17.18-5.85A5.34,5.34,0,0,0,96,323.2a2.78,2.78,0,0,0-.61-1.08,2.26,2.26,0,0,0-.94-.6,3.72,3.72,0,0,0-2.39,0,3.94,3.94,0,0,0-1.17.64,3.49,3.49,0,0,0-.9,1.06,3,3,0,0,0-.35,1.46v6.47q0,.68-.49.68t-.49-.68V316.72a.89.89,0,0,1,.12-.53.47.47,0,0,1,.39-.15.41.41,0,0,1,.37.15,1.06,1.06,0,0,1,.1.53v5.89a3.12,3.12,0,0,1,.57-.77,4.53,4.53,0,0,1,.88-.69,4.93,4.93,0,0,1,1.11-.5,4.12,4.12,0,0,1,1.25-.19,4.43,4.43,0,0,1,1.45.23,3.22,3.22,0,0,1,1.2.73,3.47,3.47,0,0,1,.81,1.24,4.76,4.76,0,0,1,.3,1.77v6.77a1,1,0,0,1-.11.53.57.57,0,0,1-.77,0,1,1,0,0,1-.11-.53Zm4.63,1.45a6.64,6.64,0,0,0,.27,1.94,4.73,4.73,0,0,0,.76,1.52,3.36,3.36,0,0,0,1.22,1,3.77,3.77,0,0,0,1.66.35,3.21,3.21,0,0,0,1.6-.38,3.35,3.35,0,0,0,1.13-1,4.74,4.74,0,0,0,.67-1.53,7.37,7.37,0,0,0,.22-1.84,7,7,0,0,0-.25-1.86,5.32,5.32,0,0,0-.71-1.59,3.61,3.61,0,0,0-1.15-1.1,3,3,0,0,0-1.56-.41,3.85,3.85,0,0,0-1.76.37,3.27,3.27,0,0,0-1.21,1,4.43,4.43,0,0,0-.68,1.57A8.51,8.51,0,0,0,100.88,326.28Zm7.49,3.16a5.3,5.3,0,0,1-1.46,1.82,3.7,3.7,0,0,1-2.36.71,4.25,4.25,0,0,1-1.91-.43,4.54,4.54,0,0,1-1.49-1.18,5.42,5.42,0,0,1-1-1.8,7.32,7.32,0,0,1-.34-2.28,7.77,7.77,0,0,1,.39-2.6,5.34,5.34,0,0,1,1.06-1.84,4.06,4.06,0,0,1,1.54-1.07,4.77,4.77,0,0,1,1.86-.32,3.61,3.61,0,0,1,1.31.23,3.91,3.91,0,0,1,1.08.62,4.3,4.3,0,0,1,.81.88,4.4,4.4,0,0,1,.53,1v-2q0-.68.49-.68t.49.68v9.92q0,.68-.51.68t-.51-.68Zm8-9.09a4.82,4.82,0,0,1,2.26.5,4.58,4.58,0,0,1,1.58,1.33,5.75,5.75,0,0,1,.92,1.9,8.19,8.19,0,0,1,.3,2.22,7.93,7.93,0,0,1-.31,2.22,5.66,5.66,0,0,1-.93,1.88,4.57,4.57,0,0,1-1.58,1.3,4.86,4.86,0,0,1-2.24.49,4.71,4.71,0,0,1-2.23-.5,4.55,4.55,0,0,1-1.56-1.32,5.74,5.74,0,0,1-.91-1.89,8.19,8.19,0,0,1-.3-2.22,8.48,8.48,0,0,1,.29-2.22,5.59,5.59,0,0,1,.9-1.89,4.47,4.47,0,0,1,1.55-1.31A4.83,4.83,0,0,1,116.33,320.34Zm0,11A3.77,3.77,0,0,0,118,331a3.72,3.72,0,0,0,1.27-1,4.72,4.72,0,0,0,.8-1.58,7,7,0,0,0,.28-2,7.36,7.36,0,0,0-.27-2,4.8,4.8,0,0,0-.78-1.6,3.62,3.62,0,0,0-1.28-1.06,3.91,3.91,0,0,0-1.77-.38,3.87,3.87,0,0,0-1.75.37,3.39,3.39,0,0,0-1.24,1,4.59,4.59,0,0,0-.73,1.6,8.21,8.21,0,0,0-.23,2,7.28,7.28,0,0,0,.27,2,4.8,4.8,0,0,0,.78,1.6,3.71,3.71,0,0,0,1.25,1.06A3.62,3.62,0,0,0,116.33,331.34Zm10.67-.09q0,.62-.49.62t-.49-.62v-13h-.92a1,1,0,0,1-.49-.09q-.13-.09-.13-.38a.45.45,0,0,1,.16-.41.83.83,0,0,1,.46-.11h1.07q.83,0,.83.68ZM135.22,317a3.88,3.88,0,0,1,2.21.61,4.61,4.61,0,0,1,1.47,1.63,8,8,0,0,1,.82,2.38,15.32,15.32,0,0,1,.26,2.85,13.52,13.52,0,0,1-.29,2.84,8,8,0,0,1-.89,2.37,4.84,4.84,0,0,1-1.49,1.62,3.72,3.72,0,0,1-2.11.6,3.77,3.77,0,0,1-2.11-.59,4.6,4.6,0,0,1-1.47-1.59,8.1,8.1,0,0,1-.86-2.34,13.48,13.48,0,0,1-.29-2.85,14.89,14.89,0,0,1,.27-2.86,8.45,8.45,0,0,1,.83-2.41,4.56,4.56,0,0,1,1.47-1.65A3.84,3.84,0,0,1,135.22,317Zm0,13.92a2.72,2.72,0,0,0,1.76-.58,4.34,4.34,0,0,0,1.16-1.48,7.36,7.36,0,0,0,.64-2.06,14,14,0,0,0,.19-2.31,13.65,13.65,0,0,0-.2-2.33,8.24,8.24,0,0,0-.65-2.12,4.46,4.46,0,0,0-1.16-1.55,2.62,2.62,0,0,0-1.74-.6,2.66,2.66,0,0,0-1.75.6,4.42,4.42,0,0,0-1.17,1.54,8.07,8.07,0,0,0-.65,2.13,14.12,14.12,0,0,0,0,4.71,7.21,7.21,0,0,0,.64,2,4.15,4.15,0,0,0,1.16,1.45A2.82,2.82,0,0,0,135.22,330.89ZM147.3,317a3.88,3.88,0,0,1,2.21.61,4.61,4.61,0,0,1,1.47,1.63,8,8,0,0,1,.82,2.38,15.32,15.32,0,0,1,.26,2.85,13.52,13.52,0,0,1-.29,2.84,8,8,0,0,1-.89,2.37,4.84,4.84,0,0,1-1.49,1.62,3.72,3.72,0,0,1-2.11.6,3.77,3.77,0,0,1-2.11-.59,4.6,4.6,0,0,1-1.47-1.59,8.1,8.1,0,0,1-.86-2.34,13.48,13.48,0,0,1-.29-2.85,14.89,14.89,0,0,1,.27-2.86,8.45,8.45,0,0,1,.83-2.41,4.56,4.56,0,0,1,1.47-1.65A3.84,3.84,0,0,1,147.3,317Zm0,13.92a2.72,2.72,0,0,0,1.76-.58,4.34,4.34,0,0,0,1.16-1.48,7.36,7.36,0,0,0,.64-2.06,14,14,0,0,0,.19-2.31,13.65,13.65,0,0,0-.2-2.33,8.24,8.24,0,0,0-.65-2.12,4.46,4.46,0,0,0-1.16-1.55,2.62,2.62,0,0,0-1.74-.6,2.66,2.66,0,0,0-1.75.6,4.42,4.42,0,0,0-1.17,1.54,8.07,8.07,0,0,0-.65,2.13,14.12,14.12,0,0,0,0,4.71,7.21,7.21,0,0,0,.64,2,4.15,4.15,0,0,0,1.16,1.45A2.82,2.82,0,0,0,147.3,330.89Zm7.79-.17a.89.89,0,0,1,.29-.66.91.91,0,0,1,.65-.28.94.94,0,0,1,.67.28.89.89,0,0,1,.29.66.9.9,0,0,1-.29.65.92.92,0,0,1-.67.29,1,1,0,0,1-.94-.94Zm4.16-4.5a6.08,6.08,0,0,1,.39-2.14,6.19,6.19,0,0,1,1.1-1.88,5.44,5.44,0,0,1,1.7-1.32,4.78,4.78,0,0,1,2.19-.5,5.89,5.89,0,0,1,2,.34,4,4,0,0,1,1.54,1l.37.38a.63.63,0,0,1,.18.45.53.53,0,0,1-.06.23.37.37,0,0,1-.18.18.41.41,0,0,1-.28,0,.76.76,0,0,1-.35-.28,3.75,3.75,0,0,0-1.5-1.1,5,5,0,0,0-1.78-.31,3.49,3.49,0,0,0-1.58.38,4.74,4.74,0,0,0-1.38,1,5.24,5.24,0,0,0-1,1.57,5.08,5.08,0,0,0-.37,2,5.16,5.16,0,0,0,.37,2,5.52,5.52,0,0,0,1,1.61,4.79,4.79,0,0,0,1.39,1.09,3.42,3.42,0,0,0,1.58.39,6,6,0,0,0,1.81-.27,3.36,3.36,0,0,0,1.54-1.06.9.9,0,0,1,.35-.27.37.37,0,0,1,.28,0,.38.38,0,0,1,.18.17.51.51,0,0,1,.06.25,1.09,1.09,0,0,1-.44.84,4,4,0,0,1-1.09.64,7.62,7.62,0,0,1-1.4.42,6.92,6.92,0,0,1-1.34.15,4.63,4.63,0,0,1-2.18-.51,5.42,5.42,0,0,1-1.68-1.34,6.24,6.24,0,0,1-1.08-1.9A6.32,6.32,0,0,1,159.25,326.21Zm15.86-5.87a4.82,4.82,0,0,1,2.26.5,4.58,4.58,0,0,1,1.58,1.33,5.75,5.75,0,0,1,.92,1.9,8.19,8.19,0,0,1,.3,2.22,7.93,7.93,0,0,1-.31,2.22,5.66,5.66,0,0,1-.93,1.88,4.57,4.57,0,0,1-1.58,1.3,4.86,4.86,0,0,1-2.24.49,4.71,4.71,0,0,1-2.23-.5,4.55,4.55,0,0,1-1.56-1.32,5.74,5.74,0,0,1-.91-1.89,8.19,8.19,0,0,1-.3-2.22,8.48,8.48,0,0,1,.29-2.22,5.59,5.59,0,0,1,.9-1.89,4.47,4.47,0,0,1,1.55-1.31A4.83,4.83,0,0,1,175.11,320.34Zm0,11a3.77,3.77,0,0,0,1.71-.37,3.72,3.72,0,0,0,1.27-1,4.72,4.72,0,0,0,.8-1.58,7,7,0,0,0,.28-2,7.36,7.36,0,0,0-.27-2,4.8,4.8,0,0,0-.78-1.6,3.62,3.62,0,0,0-1.28-1.06,3.91,3.91,0,0,0-1.77-.38,3.87,3.87,0,0,0-1.75.37,3.39,3.39,0,0,0-1.24,1,4.59,4.59,0,0,0-.73,1.6,8.21,8.21,0,0,0-.23,2,7.28,7.28,0,0,0,.27,2,4.8,4.8,0,0,0,.78,1.6,3.71,3.71,0,0,0,1.25,1.06A3.62,3.62,0,0,0,175.11,331.34Zm22.13-6.42a3.93,3.93,0,0,0-.76-2.61,2.57,2.57,0,0,0-2.06-.89,3.78,3.78,0,0,0-1.28.21,2.92,2.92,0,0,0-1.07.67,3.15,3.15,0,0,0-.74,1.17,4.93,4.93,0,0,0-.27,1.72v6a1,1,0,0,1-.11.53.57.57,0,0,1-.77,0,1,1,0,0,1-.11-.53v-5.44a10.65,10.65,0,0,0-.15-1.89,3.6,3.6,0,0,0-.51-1.37,2.29,2.29,0,0,0-1-.82,3.6,3.6,0,0,0-1.52-.28,3.56,3.56,0,0,0-1.13.19,2.78,2.78,0,0,0-1,.64,3.51,3.51,0,0,0-.78,1.16,4.43,4.43,0,0,0-.31,1.76v6a1,1,0,0,1-.11.53.57.57,0,0,1-.77,0,1,1,0,0,1-.11-.53v-9.95a.89.89,0,0,1,.12-.53.45.45,0,0,1,.37-.15q.49,0,.49.68v1.26a2.4,2.4,0,0,1,.53-.82,3.7,3.7,0,0,1,.83-.64,4.57,4.57,0,0,1,1-.42,3.57,3.57,0,0,1,1-.15,4.86,4.86,0,0,1,2.34.53,2.77,2.77,0,0,1,1.36,1.62,4.38,4.38,0,0,1,1.53-1.56,4.21,4.21,0,0,1,2.25-.6,4.5,4.5,0,0,1,1.47.23,3.09,3.09,0,0,1,1.17.71,3.45,3.45,0,0,1,.78,1.2,4.47,4.47,0,0,1,.29,1.68v6.89q0,.68-.49.68t-.49-.68Z"/></g></g></svg>