<?xml version="1.0" encoding="UTF-8"?>
<svg width="112px" height="38px" viewBox="0 0 112 38" version="1.1" xmlns="http://www.w3.org/2000/svg" xmlns:xlink="http://www.w3.org/1999/xlink">
    <!-- Generator: Sketch 43.1 (39012) - http://www.bohemiancoding.com/sketch -->
    <title>Group 10</title>
    <desc>Created with Sketch.</desc>
    <defs></defs>
    <g id="网页界面" stroke="none" stroke-width="1" fill="none" fill-rule="evenodd">
        <g id="校招" transform="translate(-457.000000, -13.000000)">
            <g id="Group-10" transform="translate(457.000000, 13.000000)">
                <g id="Group-7">
                    <path d="M23.5839297,0.0260864865 C23.1238216,0.0301945946 22.7263622,0.3496 22.6216054,0.798410811 L19.8003622,12.9768973 L24.3850108,0.0188972973 L23.5839297,0.0260864865 Z" id="Fill-1" fill="#FFB153"></path>
                    <polygon id="Fill-3" fill="#FFB153" points="26.0902865 0.00297837838 24.5343405 0.0173567568 19.6600703 13.7959514"></polygon>
                    <path d="M26.3611135,5.32066863e-14 L26.2471135,0.00102702703 L20.0407892,13.3143784 L27.2227892,1.51589189 C27.6294919,0.847297297 27.1437081,-0.00718918919 26.3611135,5.32066863e-14" id="Fill-5" fill="#FFB153"></path>
                    <g id="Group-9" transform="translate(0.000000, 14.256984)" fill="#21C6CD">
                        <polygon id="Fill-7" points="-0.000102702704 6.80713514 -0.000102702704 9.20113514 19.0081135 0.0708648649"></polygon>
                    </g>
                    <path d="M2.03197297,24.7469351 L18.3247297,14.8125027 L0.000513513515,23.6130973 C0.00667567568,24.6514216 1.14359459,25.2881784 2.03197297,24.7469351" id="Fill-10" fill="#21C6CD"></path>
                    <path d="M1.04356216,18.2587946 C0.433508108,18.3953892 0.000102702704,18.9366324 0.000102702704,19.5631189 L0.000102702704,20.9136595 L18.6786432,14.2954973 L1.04356216,18.2587946 Z" id="Fill-12" fill="#21C6CD"></path>
                    <path d="M8.30895676,36.2117405 C8.37468649,36.2589838 8.43322703,36.3113622 8.50409189,36.3524432 L10.6290108,37.5663892 C10.7481459,37.6352 10.8724162,37.6773081 10.9956595,37.7224973 L19.2324162,14.6482811 L8.30895676,36.2117405 Z" id="Fill-14" fill="#FFB153"></path>
                    <path d="M7.66706486,33.0263135 C7.02209189,34.0615568 7.27679459,35.3874486 8.19392973,36.1289622 L18.8226324,15.1447459 L7.66706486,33.0263135 Z" id="Fill-16" fill="#FFB153"></path>
                    <g id="Group-20" transform="translate(10.270270, 14.256984)" fill="#FFB153">
                        <path d="M0.855,23.5203568 C2.12440541,23.9054919 3.52116216,23.1639784 3.85083784,21.8062486 L8.92435135,0.916518919 L0.855,23.5203568 Z" id="Fill-18"></path>
                    </g>
                    <path d="M36.0466973,32.4365946 C36.9792378,31.5492432 36.9617784,30.0559459 36.0097243,29.1901622 L20.2068595,14.82 L35.5978865,32.8638378 L36.0466973,32.4365946 Z" id="Fill-21" fill="#35CFFE"></path>
                    <polygon id="Fill-23" fill="#35CFFE" points="33.3989189 34.9570216 35.4961081 32.9615081 19.7240541 14.4709135"></polygon>
                    <path d="M29.8900811,34.3723351 C30.5463514,35.6489297 32.2091081,35.9560108 33.2864595,35.0419568 L20.0706757,15.2439568 L29.8900811,34.3723351 Z" id="Fill-25" fill="#35CFFE"></path>
                    <path d="M34.8631514,6.4259027 C34.4605568,5.73676757 33.5701243,5.51184865 32.8871514,5.92779459 L20.0945027,13.7167676 L35.1476378,6.91374054 L34.8631514,6.4259027 Z" id="Fill-27" fill="#21C6CD"></path>
                    <path d="M20.6212649,13.8598324 L35.1495892,10.5990216 C36.0318054,10.4018324 36.4847243,9.45696757 36.1396432,8.65383243 L20.6212649,13.8598324 Z" id="Fill-29" fill="#21C6CD"></path>
                    <path d="M36.083773,8.52411892 C36.0776108,8.51282162 36.0755568,8.50255135 36.0693946,8.49125405 L35.2190162,7.03595676 L19.9502054,13.9365514 L36.083773,8.52411892 Z" id="Fill-31" fill="#21C6CD"></path>
                </g>
                <path d="M56.1370631,12.6926356 L49.8637701,12.6926356 C49.5511817,12.6926356 49.3948899,12.56868 49.3948899,12.3207651 C49.3948899,12.0620714 49.5511817,11.9327264 49.8637701,11.9327264 L56.1693997,11.9327264 L56.1693997,8.65056534 C56.1693997,8.35953483 56.261019,8.21402175 56.4442605,8.21402175 C56.6275019,8.21402175 56.7460681,8.24635799 56.7999627,8.31103144 C56.8538572,8.37570489 56.8808041,8.48888172 56.8808041,8.65056534 L56.8808041,11.9327264 L63.0409192,11.9327264 C63.3319497,11.9327264 63.4774627,12.0620714 63.4774627,12.3207651 C63.4774627,12.56868 63.3319497,12.6926356 63.0409192,12.6926356 L56.8646358,12.6926356 C56.8538569,12.7249723 56.8484675,12.7842554 56.8484675,12.8704867 C57.9371372,16.934135 59.9473734,20.0707502 62.8792363,22.2804263 C63.2996138,22.5930146 63.5097993,22.8032002 63.5097993,22.9109893 C63.5097993,23.0403362 63.4720737,23.1427342 63.3966213,23.2181866 C63.321169,23.3044179 63.2376337,23.3475328 63.146013,23.3475328 C63.0543923,23.3475328 62.8954058,23.277471 62.6690487,23.1373452 C62.5504807,23.0618928 62.3807155,22.9325479 62.1597478,22.7493064 C61.9387802,22.566065 61.6612275,22.3181538 61.3270814,22.0055655 C60.6803469,21.4235045 60.0497902,20.7174966 59.4353925,19.8875207 C58.8209947,19.0791026 58.2820574,18.2168029 57.8185644,17.3005957 C57.3550713,16.3843885 56.9508683,15.4035226 56.6059433,14.3579686 C56.1855659,16.1364884 55.4849474,17.6886278 54.5040667,19.0144335 C53.5231861,20.3510181 52.4938159,21.4127246 51.4159251,22.1995849 C50.3380343,22.9972241 49.6643626,23.3960377 49.3948899,23.3960377 C49.2978798,23.3960377 49.2251232,23.3529227 49.1766181,23.2666914 C49.128113,23.1804602 49.1038609,23.0942302 49.1038609,23.0079989 C49.1038609,22.8139786 49.2709314,22.6307399 49.6050776,22.4582774 C51.3404818,21.5959648 52.8010019,20.2647896 53.9866818,18.464712 C55.1831405,16.6538554 55.8999272,14.7298492 56.1370631,12.6926356 Z M68.1824325,15.9424601 C68.4519052,15.7592187 68.7132898,15.5571172 68.9665942,15.3361496 C69.2198985,15.115182 69.465115,14.8699655 69.702251,14.6004928 C69.8423768,14.4495881 69.9878898,14.4064731 70.1387946,14.4711465 C70.2896993,14.53582 70.3651505,14.6274393 70.3651505,14.7460073 C70.3651505,14.8106808 70.3166461,14.8969107 70.219636,15.0046998 C70.1334047,15.1232678 69.8908829,15.3496215 69.4920633,15.6837676 C69.298043,15.8562301 69.0932468,16.0233007 68.8776686,16.1849843 C68.6620905,16.3466679 68.4303474,16.5083491 68.1824325,16.6700328 L68.1824325,21.8923875 C68.1824325,22.3235439 68.066561,22.6603797 67.8348145,22.9029051 C67.603068,23.1454305 67.2608428,23.2666914 66.8081286,23.2666914 C66.5602138,23.2666914 66.2422408,23.2127977 65.8542001,23.1050086 C65.4446016,23.0079985 65.2398054,22.8624854 65.2398054,22.668465 C65.2398054,22.4960025 65.3098672,22.3855204 65.449993,22.3370153 C65.5901188,22.2885102 65.7302425,22.2912049 65.8703683,22.3450994 C66.258409,22.4960041 66.576382,22.5714554 66.8242969,22.5714554 C67.2985689,22.5714554 67.5357013,22.3235442 67.5357013,21.8277144 L67.5357013,17.0742398 C66.9536403,17.4083859 66.4443445,17.6643812 66.0077987,17.8422331 C65.571253,18.0200851 65.2990896,18.1090098 65.1913005,18.1090098 C65.0942904,18.1090098 65.0215338,18.0658948 64.9730287,17.9796635 C64.9245237,17.8934323 64.9002715,17.8233704 64.9002715,17.7694759 C64.9002715,17.6077923 65.0619527,17.4676686 65.3853199,17.3491006 C66.2045169,17.05807 66.9213035,16.7293183 67.5357013,16.3628354 L67.5357013,12.0135678 L65.3368151,12.0135678 C65.1320158,12.0135678 65.0296177,11.9057803 65.0296177,11.6902022 C65.0296177,11.474624 65.1320158,11.3668366 65.3368151,11.3668366 L67.5357013,11.3668366 L67.5357013,8.58589222 C67.5357013,8.38109297 67.6434888,8.27869488 67.8590669,8.27869488 C68.0746451,8.27869488 68.1824325,8.38109297 68.1824325,8.58589222 L68.1824325,11.3668366 L70.2519725,11.3668366 C70.4675507,11.3668366 70.5753381,11.474624 70.5753381,11.6902022 C70.5753381,11.9057803 70.4675507,12.0135678 70.2519725,12.0135678 L68.1824325,12.0135678 L68.1824325,15.9424601 Z M73.5179653,9.78234502 L70.8663672,9.78234502 C70.6615679,9.78234502 70.5591699,9.67455756 70.5591699,9.4589794 C70.5591699,9.24340124 70.6615679,9.13561378 70.8663672,9.13561378 L78.4169545,9.13561378 C78.8373319,9.13561378 79.1445261,9.2514853 79.3385465,9.48323182 C79.5325668,9.71497834 79.6295755,10.0895398 79.6295755,10.6069274 C79.6295755,12.5147941 79.4247794,13.813633 79.0151809,14.5034831 C78.6055824,15.1825543 77.8564595,15.5220848 76.7677898,15.5220848 C76.3689702,15.5220848 75.8677585,15.4681911 75.2641397,15.360402 C74.638963,15.2526129 74.3263794,15.080153 74.3263794,14.843017 C74.3263794,14.605881 74.4233881,14.4873148 74.6174084,14.4873148 C74.7144186,14.4873148 74.8707104,14.5196511 75.0862886,14.5843245 C75.733023,14.7891238 76.309686,14.8915218 76.8162946,14.8915218 C77.3229033,14.8915218 77.737885,14.778345 78.0612523,14.5519879 C78.3738406,14.3256309 78.6055837,13.8459767 78.7564884,13.1130109 C78.8319407,12.7465281 78.8858345,12.3989135 78.9181712,12.0701568 C78.9505079,11.7414001 78.966676,11.4315111 78.966676,11.1404806 C78.966676,10.8494501 78.958592,10.6150124 78.9424236,10.4371604 C78.9262552,10.2593084 78.8912243,10.1218794 78.8373298,10.0248692 C78.7834352,9.92785906 78.707984,9.86318659 78.6109738,9.83084986 C78.5139637,9.79851314 78.3846187,9.78234502 78.2229351,9.78234502 L74.2132014,9.78234502 C74.0515178,10.9788038 73.7928279,12.0081741 73.4371239,12.8704867 C73.070641,13.7327993 72.5640399,14.4873116 71.9173055,15.1340461 C71.2490132,15.8023383 70.8286421,16.1364795 70.6561795,16.1364795 C70.6238428,16.1257006 70.5753385,16.1014484 70.510665,16.0637222 C70.4459916,16.025996 70.4001819,15.9774917 70.3732346,15.9182077 C70.3462874,15.8589237 70.3516767,15.7807778 70.3894029,15.6837676 C70.4271291,15.5867574 70.5322219,15.4735806 70.7046844,15.3442337 C71.7286806,14.5142578 72.4185204,13.6896837 72.7742244,12.8704867 C73.1191494,12.0512897 73.3670606,11.0219194 73.5179653,9.78234502 Z M79.3870513,22.0540704 C79.3870513,22.4636689 79.3062107,22.7520003 79.1445271,22.9190734 C78.9828435,23.0861465 78.7187642,23.1696818 78.3522813,23.1696818 L72.1598297,23.1696818 C71.7825679,23.1696818 71.5157939,23.0888412 71.3594998,22.9271575 C71.2032056,22.7654739 71.1250597,22.4744478 71.1250597,22.0540704 L71.1250597,17.5107834 C71.1250597,17.1011849 71.2032056,16.8155481 71.3594998,16.6538645 C71.5157939,16.4921809 71.7825679,16.4113403 72.1598297,16.4113403 L78.2876082,16.4113403 C78.6864278,16.4113403 78.9693699,16.4948755 79.136443,16.6619486 C79.303516,16.8290217 79.3870513,17.1119638 79.3870513,17.5107834 L79.3870513,22.0540704 Z M78.7241518,21.9247241 L78.7241518,17.6239613 C78.7241518,17.2466996 78.5516919,17.0580715 78.2067668,17.0580715 L72.2891759,17.0580715 C71.9658087,17.0580715 71.8041275,17.2466996 71.8041275,17.6239613 L71.8041275,21.9247241 C71.8041275,22.0971866 71.8526319,22.240005 71.949642,22.3531836 C72.0466522,22.4663621 72.159829,22.5229505 72.2891759,22.5229505 L78.2067668,22.5229505 C78.5516919,22.5229505 78.7241518,22.3235437 78.7241518,21.9247241 Z M95.9433712,15.4574117 C96.1589493,15.4574117 96.2667368,15.5813673 96.2667368,15.8292821 C96.2667368,16.077197 96.1589493,16.2011526 95.9433712,16.2011526 L81.2949085,16.2011526 C81.0901092,16.2011526 80.9877112,16.077197 80.9877112,15.8292821 C80.9877112,15.5813673 81.0901092,15.4574117 81.2949085,15.4574117 L95.9433712,15.4574117 Z M104.658075,10.1218789 L98.3201085,10.1218789 C98.136867,10.1218789 98.0452477,10.0087021 98.0452477,9.78234502 C98.0452477,9.55598795 98.136867,9.44281112 98.3201085,9.44281112 L111.238565,9.44281112 C111.432585,9.44281112 111.529594,9.55598795 111.529594,9.78234502 C111.529594,10.0087021 111.432585,10.1218789 111.238565,10.1218789 L105.337142,10.1218789 C105.153901,10.9087392 104.852096,11.7656495 104.431719,12.6926356 L109.621737,12.6926356 C109.998999,12.6926356 110.265773,12.7734762 110.422067,12.9351598 C110.578361,13.0968434 110.656507,13.3770909 110.656507,13.7759104 L110.656507,22.1187435 C110.656507,22.5175631 110.572972,22.7951158 110.405899,22.95141 C110.238826,23.1077041 109.950494,23.18585 109.540896,23.18585 L100.050115,23.18585 C99.651295,23.18585 99.3737422,23.1103988 99.2174481,22.9594941 C99.0611539,22.8085894 98.983008,22.5229526 98.983008,22.1025752 L98.983008,13.7759104 C98.983008,13.3339752 99.0638486,13.0429491 99.2255322,12.9028233 C99.3872158,12.7626975 99.6566845,12.6926356 100.033946,12.6926356 L103.720314,12.6926356 C104.151471,11.9165542 104.464054,11.0596439 104.658075,10.1218789 Z M99.6620758,17.2197543 L109.977439,17.2197543 L109.977439,13.9537615 C109.977439,13.5549419 109.7942,13.3555351 109.427718,13.3555351 L100.179461,13.3555351 C99.8345357,13.3555351 99.6620758,13.5603313 99.6620758,13.9699298 L99.6620758,17.2197543 Z M109.977439,17.8826538 L99.6620758,17.8826538 L99.6620758,21.8762193 C99.6620758,22.0594607 99.7105802,22.2103631 99.8075903,22.3289311 C99.9046005,22.4474991 100.028556,22.5067822 100.179461,22.5067822 L109.411549,22.5067822 C109.788811,22.5067822 109.977439,22.2965967 109.977439,21.8762193 L109.977439,17.8826538 Z" id="大招一百" fill="#394A58"></path>
                <path d="M50.9607015,32.1417536 L51.8333853,29.3504979 C51.8644734,29.2572335 51.8900097,29.198389 51.9099949,29.1739626 C51.9299801,29.1495363 51.9599575,29.1373233 51.999928,29.1373233 C52.0443396,29.1373233 52.0765375,29.1506465 52.0965227,29.1772935 C52.1165079,29.2039405 52.1420442,29.2638952 52.1731324,29.3571596 L53.0791247,32.1350919 L53.9717936,29.3504979 C54.0206463,29.2083808 54.0850422,29.1373233 54.1649831,29.1373233 C54.271571,29.1373233 54.3248641,29.1795137 54.3248641,29.2638957 C54.3248641,29.3216308 54.3048792,29.4082321 54.2649087,29.5237023 C54.2249383,29.6391725 54.1894095,29.7435382 54.1583214,29.8368026 L53.2922993,32.4615156 C53.2656524,32.5414565 53.2378955,32.5958599 53.209028,32.6247274 C53.1801604,32.653595 53.1324187,32.6680286 53.0658013,32.6680286 C52.9947427,32.6680286 52.9458906,32.6513744 52.9192437,32.6180657 C52.8925967,32.584757 52.8703912,32.5325742 52.8526266,32.4615156 L52.0065897,29.7168919 L51.2804635,32.0684748 C51.2538165,32.157298 51.231611,32.238348 51.2138464,32.3116272 C51.1960818,32.3849063 51.1760968,32.4481919 51.153891,32.5014858 C51.1316852,32.5547798 51.1050387,32.5958599 51.0739505,32.6247274 C51.0428624,32.653595 51.0028926,32.6680286 50.9540398,32.6680286 C50.8963047,32.6680286 50.853004,32.6569258 50.8241365,32.63472 C50.7952689,32.6125142 50.7652915,32.55478 50.7342034,32.4615156 L49.8681814,29.8368026 C49.8548579,29.792391 49.839314,29.743539 49.8215494,29.690245 C49.8037848,29.6369511 49.7860204,29.5847682 49.7682557,29.5336949 C49.7504911,29.4826215 49.7360575,29.4348798 49.7249546,29.3904682 C49.7138517,29.3460566 49.7083004,29.3105278 49.7083004,29.2838808 C49.7083004,29.1861753 49.763814,29.1373233 49.8748431,29.1373233 C49.954784,29.1373233 50.0147387,29.2017191 50.0547092,29.3305128 L50.9607015,32.1417536 Z M55.8703804,32.1417536 L56.7430641,29.3504979 C56.7741523,29.2572335 56.7996885,29.198389 56.8196738,29.1739626 C56.839659,29.1495363 56.8696364,29.1373233 56.9096068,29.1373233 C56.9540184,29.1373233 56.9862164,29.1506465 57.0062016,29.1772935 C57.0261868,29.2039405 57.0517231,29.2638952 57.0828112,29.3571596 L57.9888035,32.1350919 L58.8814724,29.3504979 C58.9303252,29.2083808 58.9947211,29.1373233 59.074662,29.1373233 C59.1812498,29.1373233 59.234543,29.1795137 59.234543,29.2638957 C59.234543,29.3216308 59.214558,29.4082321 59.1745876,29.5237023 C59.1346171,29.6391725 59.0990884,29.7435382 59.0680003,29.8368026 L58.2019782,32.4615156 C58.1753312,32.5414565 58.1475744,32.5958599 58.1187069,32.6247274 C58.0898393,32.653595 58.0420975,32.6680286 57.9754801,32.6680286 C57.9044216,32.6680286 57.8555695,32.6513744 57.8289226,32.6180657 C57.8022756,32.584757 57.7800701,32.5325742 57.7623055,32.4615156 L56.9162685,29.7168919 L56.1901424,32.0684748 C56.1634954,32.157298 56.1412899,32.238348 56.1235253,32.3116272 C56.1057606,32.3849063 56.0857757,32.4481919 56.0635699,32.5014858 C56.0413641,32.5547798 56.0147175,32.5958599 55.9836294,32.6247274 C55.9525413,32.653595 55.9125714,32.6680286 55.8637187,32.6680286 C55.8059836,32.6680286 55.7626829,32.6569258 55.7338154,32.63472 C55.7049478,32.6125142 55.6749704,32.55478 55.6438823,32.4615156 L54.7778602,29.8368026 C54.7645368,29.792391 54.7489929,29.743539 54.7312283,29.690245 C54.7134636,29.6369511 54.6956993,29.5847682 54.6779346,29.5336949 C54.66017,29.4826215 54.6457364,29.4348798 54.6346335,29.3904682 C54.6235306,29.3460566 54.6179792,29.3105278 54.6179792,29.2838808 C54.6179792,29.1861753 54.6734929,29.1373233 54.7845219,29.1373233 C54.8644628,29.1373233 54.9244176,29.2017191 54.9643881,29.3305128 L55.8703804,32.1417536 Z M60.7800592,32.1417536 L61.652743,29.3504979 C61.6838311,29.2572335 61.7093674,29.198389 61.7293526,29.1739626 C61.7493379,29.1495363 61.7793153,29.1373233 61.8192857,29.1373233 C61.8636973,29.1373233 61.8958953,29.1506465 61.9158805,29.1772935 C61.9358657,29.2039405 61.961402,29.2638952 61.9924901,29.3571596 L62.8984824,32.1350919 L63.7911513,29.3504979 C63.8400041,29.2083808 63.9043999,29.1373233 63.9843408,29.1373233 C64.0909287,29.1373233 64.1442218,29.1795137 64.1442218,29.2638957 C64.1442218,29.3216308 64.1242369,29.4082321 64.0842665,29.5237023 C64.044296,29.6391725 64.0087673,29.7435382 63.9776791,29.8368026 L63.1116571,32.4615156 C63.0850101,32.5414565 63.0572533,32.5958599 63.0283857,32.6247274 C62.9995182,32.653595 62.9517764,32.6680286 62.885159,32.6680286 C62.8141004,32.6680286 62.7652484,32.6513744 62.7386014,32.6180657 C62.7119545,32.584757 62.689749,32.5325742 62.6719843,32.4615156 L61.8259474,29.7168919 L61.0998212,32.0684748 C61.0731743,32.157298 61.0509688,32.238348 61.0332042,32.3116272 C61.0154395,32.3849063 60.9954546,32.4481919 60.9732488,32.5014858 C60.951043,32.5547798 60.9243964,32.5958599 60.8933083,32.6247274 C60.8622202,32.653595 60.8222503,32.6680286 60.7733975,32.6680286 C60.7156624,32.6680286 60.6723618,32.6569258 60.6434942,32.63472 C60.6146267,32.6125142 60.5846493,32.55478 60.5535612,32.4615156 L59.6875391,29.8368026 C59.6742156,29.792391 59.6586718,29.743539 59.6409072,29.690245 C59.6231425,29.6369511 59.6053781,29.5847682 59.5876135,29.5336949 C59.5698488,29.4826215 59.5554153,29.4348798 59.5443124,29.3904682 C59.5332095,29.3460566 59.5276581,29.3105278 59.5276581,29.2838808 C59.5276581,29.1861753 59.5831718,29.1373233 59.6942008,29.1373233 C59.7741417,29.1373233 59.8340965,29.2017191 59.8740669,29.3305128 L60.7800592,32.1417536 Z M64.8303778,32.3082963 C64.8303778,32.2283554 64.8603552,32.1595185 64.9203108,32.1017834 C64.9802665,32.0440483 65.0479932,32.0151812 65.1234929,32.0151812 C65.2034338,32.0151812 65.2733811,32.0440483 65.3333367,32.1017834 C65.3932924,32.1595185 65.4232698,32.2283554 65.4232698,32.3082963 C65.4232698,32.383796 65.3932924,32.4515227 65.3333367,32.5114784 C65.2733811,32.5714341 65.2034338,32.6014115 65.1234929,32.6014115 C65.0479932,32.6014115 64.9802665,32.5714341 64.9203108,32.5114784 C64.8603552,32.4515227 64.8303778,32.383796 64.8303778,32.3082963 Z M66.5890687,30.922661 C66.5890687,31.1447191 66.6168256,31.3467889 66.6723401,31.5288765 C66.7278546,31.7109641 66.806684,31.8686229 66.9088307,32.0018577 C67.0109774,32.1350926 67.1375486,32.238348 67.2885481,32.3116272 C67.4395475,32.3849063 67.6127502,32.4215454 67.8081613,32.4215454 C67.9991312,32.4215454 68.1656723,32.3815755 68.3077894,32.3016346 C68.4499066,32.2216937 68.5675956,32.1139972 68.6608599,31.9785418 C68.7541243,31.8430864 68.8240716,31.6843172 68.8707037,31.5022296 C68.9173359,31.320142 68.9406517,31.129175 68.9406517,30.9293227 C68.9406517,30.7294705 68.9151154,30.5362829 68.864042,30.3497541 C68.8129687,30.1632254 68.7385804,29.9977946 68.6408748,29.8534569 C68.5431693,29.7091191 68.4232597,29.594761 68.2811426,29.5103789 C68.1390254,29.4259969 67.9769255,29.3838065 67.7948379,29.3838065 C67.5816622,29.3838065 67.398467,29.422666 67.245247,29.5003863 C67.0920269,29.5781067 66.966566,29.6858032 66.8688605,29.8234792 C66.7711549,29.9611552 66.7000974,30.1243654 66.6556858,30.3131147 C66.6112742,30.5018641 66.5890687,30.7050441 66.5890687,30.922661 Z M68.9273283,31.9085938 C68.8118581,32.1395342 68.6597506,32.329391 68.4710013,32.4781699 C68.2822519,32.6269488 68.0368815,32.7013371 67.7348825,32.7013371 C67.5172656,32.7013371 67.3185267,32.6569261 67.1386596,32.5681029 C66.9587926,32.4792797 66.8033543,32.3560393 66.6723401,32.1983781 C66.5413258,32.0407169 66.4402909,31.8530807 66.3692323,31.6354638 C66.2981738,31.4178469 66.262645,31.1802484 66.262645,30.922661 C66.262645,30.6117798 66.3037251,30.340873 66.3858866,30.1099326 C66.4680481,29.8789923 66.5779652,29.6880252 66.7156412,29.5370257 C66.8533172,29.3860263 67.0131966,29.2749989 67.1952842,29.2039403 C67.3773718,29.1328818 67.5705594,29.0995736 67.7748528,29.1040147 C67.9214111,29.1040147 68.0579747,29.1284407 68.1845478,29.1772935 C68.3111209,29.2261463 68.4232585,29.2905421 68.5209641,29.370483 C68.6186696,29.4504239 68.7030504,29.5414664 68.774109,29.6436131 C68.8451675,29.7457598 68.9006812,29.852346 68.9406517,29.9633751 L68.9406517,27.9382158 C68.9406517,27.7960986 68.9917243,27.7250411 69.093871,27.7250411 C69.1960177,27.7250411 69.2470902,27.7960986 69.2470902,27.9382158 L69.2470902,32.4481922 C69.2470902,32.5903093 69.1937971,32.6613668 69.0872093,32.6613668 C68.9806214,32.6613668 68.9273283,32.5903093 68.9273283,32.4481922 L68.9273283,31.9085938 Z M70.2863167,30.922661 C70.2863167,31.1447191 70.3140736,31.3467889 70.3695881,31.5288765 C70.4251026,31.7109641 70.503932,31.8686229 70.6060787,32.0018577 C70.7082254,32.1350926 70.8347966,32.238348 70.9857961,32.3116272 C71.1367955,32.3849063 71.3099982,32.4215454 71.5054093,32.4215454 C71.6963792,32.4215454 71.8629203,32.3815755 72.0050374,32.3016346 C72.1471546,32.2216937 72.2648436,32.1139972 72.3581079,31.9785418 C72.4513723,31.8430864 72.5213196,31.6843172 72.5679517,31.5022296 C72.6145839,31.320142 72.6378997,31.129175 72.6378997,30.9293227 C72.6378997,30.7294705 72.6123634,30.5362829 72.56129,30.3497541 C72.5102167,30.1632254 72.4358284,29.9977946 72.3381228,29.8534569 C72.2404173,29.7091191 72.1205077,29.594761 71.9783906,29.5103789 C71.8362734,29.4259969 71.6741735,29.3838065 71.4920859,29.3838065 C71.2789102,29.3838065 71.095715,29.422666 70.942495,29.5003863 C70.7892749,29.5781067 70.663814,29.6858032 70.5661085,29.8234792 C70.4684029,29.9611552 70.3973454,30.1243654 70.3529338,30.3131147 C70.3085222,30.5018641 70.2863167,30.7050441 70.2863167,30.922661 Z M72.6245763,31.9085938 C72.5091061,32.1395342 72.3569986,32.329391 72.1682493,32.4781699 C71.9794999,32.6269488 71.7341295,32.7013371 71.4321305,32.7013371 C71.2145136,32.7013371 71.0157747,32.6569261 70.8359076,32.5681029 C70.6560406,32.4792797 70.5006023,32.3560393 70.3695881,32.1983781 C70.2385738,32.0407169 70.1375389,31.8530807 70.0664803,31.6354638 C69.9954218,31.4178469 69.959893,31.1802484 69.959893,30.922661 C69.959893,30.6117798 70.0009731,30.340873 70.0831346,30.1099326 C70.1652961,29.8789923 70.2752132,29.6880252 70.4128892,29.5370257 C70.5505652,29.3860263 70.7104446,29.2749989 70.8925322,29.2039403 C71.0746198,29.1328818 71.2678074,29.0995736 71.4721008,29.1040147 C71.6186591,29.1040147 71.7552227,29.1284407 71.8817958,29.1772935 C72.0083689,29.2261463 72.1205065,29.2905421 72.2182121,29.370483 C72.3159176,29.4504239 72.4002984,29.5414664 72.471357,29.6436131 C72.5424155,29.7457598 72.5979292,29.852346 72.6378997,29.9633751 L72.6378997,29.3504979 C72.6378997,29.2083808 72.6889723,29.1373233 72.791119,29.1373233 C72.8932657,29.1373233 72.9443382,29.2083808 72.9443382,29.3504979 L72.9443382,32.4481922 C72.9443382,32.5903093 72.8910451,32.6613668 72.7844573,32.6613668 C72.6778694,32.6613668 72.6245763,32.5903093 72.6245763,32.4481922 L72.6245763,31.9085938 Z M73.8303454,32.2949729 L75.9087984,32.2949729 C76.0509155,32.2949729 76.121973,32.3460455 76.121973,32.4481922 C76.121973,32.5059273 76.1064292,32.5458971 76.0753411,32.5681029 C76.0442529,32.5903087 75.9887393,32.6014115 75.9087984,32.6014115 L73.8436688,32.6014115 C73.6082873,32.6014115 73.4905983,32.5347951 73.4905983,32.4015602 C73.4905983,32.3260605 73.5261271,32.2394592 73.5971856,32.1417536 L75.7022854,29.5503492 L73.6971113,29.5503492 C73.5549941,29.5503492 73.4839366,29.4992766 73.4839366,29.3971299 C73.4839366,29.2949832 73.5549941,29.2439106 73.6971113,29.2439106 L75.6956237,29.2439106 C75.9310052,29.2439106 76.0486942,29.310527 76.0486942,29.4437618 C76.0486942,29.5192616 76.0131655,29.6058629 75.9421069,29.7035684 L73.8303454,32.2949729 Z M79.1930205,30.4696649 C79.1930205,30.2698126 79.170815,30.101051 79.1264034,29.9633751 C79.0819918,29.8256991 79.0187062,29.7135614 78.9365447,29.6269588 C78.8543832,29.5403562 78.7566791,29.4781808 78.6434295,29.440431 C78.5301799,29.4026811 78.4069396,29.3838065 78.2737047,29.3838065 C78.1537934,29.3838065 78.0283325,29.4060119 77.8973182,29.4504235 C77.766304,29.4948351 77.6441739,29.5614516 77.5309243,29.6502748 C77.4176747,29.739098 77.3244117,29.8490151 77.2511325,29.9800293 C77.1778534,30.1110436 77.1412144,30.2631511 77.1412144,30.4363563 L77.1412144,32.4548539 C77.1412144,32.596971 77.0901418,32.6680286 76.9879951,32.6680286 C76.8858484,32.6680286 76.8347758,32.596971 76.8347758,32.4548539 L76.8347758,27.9382158 C76.8347758,27.8582749 76.8469888,27.8027612 76.8714152,27.7716731 C76.8958416,27.740585 76.9369217,27.7250411 76.9946568,27.7250411 C77.0523919,27.7250411 77.0912514,27.740585 77.1112367,27.7716731 C77.1312219,27.8027612 77.1412144,27.8582749 77.1412144,27.9382158 L77.1412144,29.7768472 C77.1811848,29.6969063 77.2400293,29.6169666 77.3177496,29.5370257 C77.3954699,29.4570848 77.4865124,29.3849171 77.5908797,29.3205202 C77.6952469,29.2561234 77.8107154,29.2039405 77.9372885,29.1639701 C78.0638616,29.1239996 78.1937636,29.1040147 78.3269984,29.1040147 C78.4868802,29.1040147 78.6378774,29.1284407 78.7799946,29.1772935 C78.9221117,29.2261463 79.0464623,29.3016449 79.1530502,29.4037916 C79.2596381,29.5059383 79.3440189,29.63473 79.4061951,29.7901706 C79.4683714,29.9456113 79.499459,30.1299167 79.499459,30.3430924 L79.499459,32.4548539 C79.499459,32.5347948 79.4883563,32.5903085 79.4661505,32.6213966 C79.4439447,32.6524847 79.4039748,32.6680286 79.3462397,32.6680286 C79.2885046,32.6680286 79.2485348,32.6524847 79.226329,32.6213966 C79.2041232,32.5903085 79.1930205,32.5347948 79.1930205,32.4548539 L79.1930205,30.4696649 Z M80.6386111,30.922661 C80.6386111,31.1447191 80.666368,31.3467889 80.7218825,31.5288765 C80.777397,31.7109641 80.8562264,31.8686229 80.9583731,32.0018577 C81.0605198,32.1350926 81.187091,32.238348 81.3380905,32.3116272 C81.4890899,32.3849063 81.6622926,32.4215454 81.8577037,32.4215454 C82.0486736,32.4215454 82.2152147,32.3815755 82.3573318,32.3016346 C82.499449,32.2216937 82.617138,32.1139972 82.7104023,31.9785418 C82.8036667,31.8430864 82.873614,31.6843172 82.9202461,31.5022296 C82.9668783,31.320142 82.9901941,31.129175 82.9901941,30.9293227 C82.9901941,30.7294705 82.9646578,30.5362829 82.9135844,30.3497541 C82.8625111,30.1632254 82.7881228,29.9977946 82.6904172,29.8534569 C82.5927117,29.7091191 82.4728021,29.594761 82.330685,29.5103789 C82.1885678,29.4259969 82.0264679,29.3838065 81.8443803,29.3838065 C81.6312046,29.3838065 81.4480094,29.422666 81.2947894,29.5003863 C81.1415693,29.5781067 81.0161084,29.6858032 80.9184029,29.8234792 C80.8206973,29.9611552 80.7496398,30.1243654 80.7052282,30.3131147 C80.6608166,30.5018641 80.6386111,30.7050441 80.6386111,30.922661 Z M82.9768707,31.9085938 C82.8614005,32.1395342 82.709293,32.329391 82.5205437,32.4781699 C82.3317943,32.6269488 82.0864239,32.7013371 81.7844249,32.7013371 C81.566808,32.7013371 81.3680691,32.6569261 81.188202,32.5681029 C81.008335,32.4792797 80.8528967,32.3560393 80.7218825,32.1983781 C80.5908682,32.0407169 80.4898333,31.8530807 80.4187747,31.6354638 C80.3477162,31.4178469 80.3121874,31.1802484 80.3121874,30.922661 C80.3121874,30.6117798 80.3532675,30.340873 80.435429,30.1099326 C80.5175905,29.8789923 80.6275076,29.6880252 80.7651836,29.5370257 C80.9028596,29.3860263 81.062739,29.2749989 81.2448266,29.2039403 C81.4269142,29.1328818 81.6201018,29.0995736 81.8243952,29.1040147 C81.9709535,29.1040147 82.1075171,29.1284407 82.2340902,29.1772935 C82.3606633,29.2261463 82.4728009,29.2905421 82.5705065,29.370483 C82.668212,29.4504239 82.7525928,29.5414664 82.8236514,29.6436131 C82.8947099,29.7457598 82.9502236,29.852346 82.9901941,29.9633751 L82.9901941,29.3504979 C82.9901941,29.2083808 83.0412667,29.1373233 83.1434134,29.1373233 C83.2455601,29.1373233 83.2966326,29.2083808 83.2966326,29.3504979 L83.2966326,32.4481922 C83.2966326,32.5903093 83.2433395,32.6613668 83.1367517,32.6613668 C83.0301638,32.6613668 82.9768707,32.5903093 82.9768707,32.4481922 L82.9768707,31.9085938 Z M85.4616878,29.0707062 C85.7325986,29.0707062 85.9679766,29.122889 86.1678288,29.2272563 C86.3676811,29.3316236 86.5320016,29.4704078 86.6607952,29.6436131 C86.7895889,29.8168183 86.8850724,30.014447 86.9472487,30.2365051 C87.0094249,30.4585631 87.0405126,30.6895 87.0405126,30.9293227 C87.0405126,31.1691454 87.0083147,31.4000823 86.9439178,31.6221404 C86.879521,31.8441984 86.7829272,32.0396066 86.6541335,32.2083707 C86.5253399,32.3771348 86.3610194,32.5125882 86.1611671,32.6147349 C85.9613149,32.7168816 85.7281574,32.7679542 85.4616878,32.7679542 C85.1952181,32.7679542 84.9631709,32.7157713 84.7655393,32.611404 C84.5679076,32.5070368 84.4058077,32.3693628 84.2792346,32.1983781 C84.1526615,32.0273934 84.0582883,31.830875 83.996112,31.608817 C83.9339357,31.3867589 83.9028481,31.155822 83.9028481,30.9159993 C83.9028481,30.6761766 83.9328255,30.4452397 83.9927811,30.2231817 C84.0527368,30.0011236 84.1459998,29.8046052 84.2725729,29.6336205 C84.399146,29.4626358 84.5601356,29.3260722 84.7555467,29.2239255 C84.9509578,29.1217788 85.1863358,29.0707062 85.4616878,29.0707062 Z M85.4616878,32.5014858 C85.66154,32.5014858 85.8391838,32.4626263 85.9946244,32.384906 C86.1500651,32.3071856 86.2821876,32.1994891 86.3909961,32.0618131 C86.4998045,31.9241371 86.583075,31.7598166 86.6408101,31.5688467 C86.6985452,31.3778768 86.7274123,31.1669248 86.7274123,30.9359844 C86.7274123,30.7050441 86.6996555,30.4929818 86.644141,30.2997913 C86.5886265,30.1066008 86.5075765,29.9400598 86.4009886,29.8001632 C86.2944008,29.6602666 86.1611679,29.5503496 86.0012861,29.4704087 C85.8414043,29.3904678 85.6570989,29.3504979 85.4483644,29.3504979 C85.2396298,29.3504979 85.0575449,29.3893575 84.9021043,29.4670778 C84.7466637,29.5447981 84.6178719,29.6536049 84.5157252,29.7935015 C84.4135785,29.9333981 84.3380799,30.0999391 84.2892272,30.2931296 C84.2403744,30.4863201 84.2159484,30.6961618 84.2159484,30.922661 C84.2159484,31.1491602 84.2437052,31.3590019 84.2992197,31.5521924 C84.3547342,31.7453829 84.4357842,31.911924 84.5423721,32.0518206 C84.6489599,32.1917171 84.7788619,32.3016342 84.932082,32.3815751 C85.085302,32.461516 85.2618355,32.5014858 85.4616878,32.5014858 Z M88.7925418,32.474839 C88.7925418,32.6036327 88.7414693,32.6680286 88.6393226,32.6680286 C88.5371758,32.6680286 88.4861033,32.6036327 88.4861033,32.474839 L88.4861033,28.4111971 L88.1996498,28.4111971 C88.1241501,28.4111971 88.0730775,28.4023149 88.0464305,28.3845502 C88.0197836,28.3667856 88.0064603,28.3268157 88.0064603,28.2646395 C88.0064603,28.2024632 88.0231144,28.1602728 88.0564231,28.138067 C88.0897318,28.1158612 88.1374736,28.1047585 88.1996498,28.1047585 L88.5327352,28.1047585 C88.7059405,28.1047585 88.7925418,28.175816 88.7925418,28.3179332 L88.7925418,32.474839 Z M91.3572995,28.0181563 C91.6282103,28.0181563 91.8580369,28.0814419 92.0467862,28.208015 C92.2355356,28.3345881 92.3887533,28.5044599 92.5064441,28.7176356 C92.6241349,28.9308114 92.7096259,29.1784024 92.7629199,29.4604161 C92.8162138,29.7424298 92.8428604,30.0388729 92.8428604,30.3497541 C92.8428604,30.6606354 92.812883,30.9559682 92.7529273,31.2357613 C92.6929716,31.5155544 92.6008189,31.7620352 92.4764664,31.9752109 C92.3521139,32.1883866 92.1966756,32.3571482 92.0101469,32.4815007 C91.8236181,32.6058532 91.6037839,32.6680286 91.3506378,32.6680286 C91.0974916,32.6680286 90.8776574,32.6069635 90.6911286,32.4848316 C90.5045999,32.3626997 90.3513821,32.1972689 90.2314708,31.9885343 C90.1115594,31.7797998 90.0216273,31.5366498 89.9616716,31.2590773 C89.9017159,30.9815047 89.8717386,30.6850617 89.8717386,30.3697393 C89.8717386,30.058858 89.8994954,29.7613047 89.9550099,29.4770704 C90.0105244,29.1928361 90.0971258,28.9419142 90.2148165,28.7242974 C90.3325073,28.5066805 90.485725,28.3345881 90.6744744,28.208015 C90.8632237,28.0814419 91.0908298,28.0181563 91.3572995,28.0181563 Z M91.3572995,32.36159 C91.5749163,32.36159 91.7581115,32.3016352 91.9068904,32.1817239 C92.0556693,32.0618125 92.1766891,31.9074845 92.2699535,31.7187351 C92.3632179,31.5299858 92.4298343,31.315703 92.4698047,31.0758803 C92.5097752,30.8360576 92.5297601,30.5962385 92.5297601,30.3564158 C92.5297601,30.1165931 92.5086649,29.8745535 92.4664739,29.6302897 C92.4242828,29.3860258 92.3565561,29.1650814 92.2632918,28.9674497 C92.1700274,28.769818 92.0490076,28.6088284 91.9002287,28.4844759 C91.7514498,28.3601234 91.5704752,28.297948 91.3572995,28.297948 C91.1441237,28.297948 90.9620389,28.3601234 90.8110394,28.4844759 C90.6600399,28.6088284 90.5379098,28.7687078 90.4446454,28.9641188 C90.3513811,29.1595299 90.2836544,29.3815846 90.2414634,29.6302897 C90.1992723,29.8789947 90.1781771,30.1254754 90.1781771,30.3697393 C90.1781771,30.6184443 90.198162,30.8615942 90.2381325,31.0991963 C90.2781029,31.3367984 90.3447194,31.5488607 90.4379837,31.7353894 C90.5312481,31.9219182 90.6522679,32.0729154 90.8010468,32.1883856 C90.9498257,32.3038558 91.1352414,32.36159 91.3572995,32.36159 Z M95.1278262,28.0181563 C95.3987371,28.0181563 95.6285637,28.0814419 95.817313,28.208015 C96.0060624,28.3345881 96.1592801,28.5044599 96.2769709,28.7176356 C96.3946617,28.9308114 96.4801527,29.1784024 96.5334467,29.4604161 C96.5867406,29.7424298 96.6133872,30.0388729 96.6133872,30.3497541 C96.6133872,30.6606354 96.5834098,30.9559682 96.5234541,31.2357613 C96.4634984,31.5155544 96.3713457,31.7620352 96.2469932,31.9752109 C96.1226407,32.1883866 95.9672024,32.3571482 95.7806736,32.4815007 C95.5941449,32.6058532 95.3743107,32.6680286 95.1211645,32.6680286 C94.8680184,32.6680286 94.6481842,32.6069635 94.4616554,32.4848316 C94.2751267,32.3626997 94.1219089,32.1972689 94.0019976,31.9885343 C93.8820862,31.7797998 93.7921541,31.5366498 93.7321984,31.2590773 C93.6722427,30.9815047 93.6422653,30.6850617 93.6422653,30.3697393 C93.6422653,30.058858 93.6700222,29.7613047 93.7255367,29.4770704 C93.7810512,29.1928361 93.8676525,28.9419142 93.9853433,28.7242974 C94.1030341,28.5066805 94.2562518,28.3345881 94.4450012,28.208015 C94.6337505,28.0814419 94.8613566,28.0181563 95.1278262,28.0181563 Z M95.1278262,32.36159 C95.3454431,32.36159 95.5286383,32.3016352 95.6774172,32.1817239 C95.8261961,32.0618125 95.9472159,31.9074845 96.0404803,31.7187351 C96.1337446,31.5299858 96.2003611,31.315703 96.2403315,31.0758803 C96.280302,30.8360576 96.3002869,30.5962385 96.3002869,30.3564158 C96.3002869,30.1165931 96.2791917,29.8745535 96.2370006,29.6302897 C96.1948096,29.3860258 96.1270829,29.1650814 96.0338186,28.9674497 C95.9405542,28.769818 95.8195344,28.6088284 95.6707555,28.4844759 C95.5219766,28.3601234 95.341002,28.297948 95.1278262,28.297948 C94.9146505,28.297948 94.7325657,28.3601234 94.5815662,28.4844759 C94.4305667,28.6088284 94.3084366,28.7687078 94.2151722,28.9641188 C94.1219079,29.1595299 94.0541812,29.3815846 94.0119901,29.6302897 C93.9697991,29.8789947 93.9487039,30.1254754 93.9487039,30.3697393 C93.9487039,30.6184443 93.9686888,30.8615942 94.0086593,31.0991963 C94.0486297,31.3367984 94.1152461,31.5488607 94.2085105,31.7353894 C94.3017749,31.9219182 94.4227947,32.0729154 94.5715736,32.1883856 C94.7203525,32.3038558 94.9057682,32.36159 95.1278262,32.36159 Z M97.5593497,32.3082963 C97.5593497,32.2283554 97.5893271,32.1595185 97.6492828,32.1017834 C97.7092384,32.0440483 97.7769651,32.0151812 97.8524649,32.0151812 C97.9324058,32.0151812 98.002353,32.0440483 98.0623087,32.1017834 C98.1222643,32.1595185 98.1522417,32.2283554 98.1522417,32.3082963 C98.1522417,32.383796 98.1222643,32.4515227 98.0623087,32.5114784 C98.002353,32.5714341 97.9324058,32.6014115 97.8524649,32.6014115 C97.7769651,32.6014115 97.7092384,32.5714341 97.6492828,32.5114784 C97.5893271,32.4515227 97.5593497,32.383796 97.5593497,32.3082963 Z M98.8583828,30.9026759 C98.8583828,30.6761767 98.8994629,30.4530117 98.9816244,30.2331742 C99.0637859,30.0133368 99.178144,29.8179286 99.3247024,29.6469439 C99.4712607,29.4759592 99.6477942,29.3382853 99.8543082,29.233918 C100.060822,29.1295507 100.288428,29.0773679 100.537133,29.0773679 C100.763632,29.0773679 100.974584,29.1128966 101.169996,29.1839552 C101.365407,29.2550138 101.525286,29.3549384 101.649638,29.4837321 C101.689609,29.5237025 101.728469,29.5636724 101.766218,29.6036428 C101.803968,29.6436133 101.822843,29.6902448 101.822843,29.7435387 C101.822843,29.7657445 101.816181,29.7901705 101.802858,29.8168175 C101.789534,29.8434644 101.77066,29.8623391 101.746233,29.873442 C101.721807,29.8845449 101.69294,29.8856552 101.659631,29.8767729 C101.626322,29.8678905 101.589683,29.8390234 101.549713,29.7901706 C101.407596,29.6258477 101.251047,29.5114895 101.080062,29.4470927 C100.909078,29.3826958 100.723662,29.3504979 100.52381,29.3504979 C100.355046,29.3504979 100.190725,29.3904678 100.030843,29.4704087 C99.8709616,29.5503496 99.7277363,29.6591564 99.6011632,29.7968324 C99.4745902,29.9345083 99.372445,30.0977186 99.2947247,30.2864679 C99.2170044,30.4752172 99.1781448,30.6783973 99.1781448,30.8960142 C99.1781448,31.1136311 99.2170044,31.3179214 99.2947247,31.5088913 C99.372445,31.6998613 99.4757004,31.8675126 99.6044941,32.0118503 C99.7332878,32.156188 99.8776233,32.2694359 100.037505,32.3515974 C100.197387,32.4337589 100.361707,32.474839 100.530472,32.474839 C100.730324,32.474839 100.91907,32.4470822 101.096717,32.3915677 C101.274363,32.3360532 101.434243,32.2261361 101.57636,32.0618131 C101.61633,32.0174015 101.652969,31.9896447 101.686278,31.9785418 C101.719587,31.9674389 101.748454,31.9674389 101.77288,31.9785418 C101.797306,31.9896447 101.816181,32.007409 101.829505,32.0318354 C101.842828,32.0562618 101.84949,32.0817981 101.84949,32.1084451 C101.84949,32.2061506 101.803969,32.2938622 101.712925,32.3715825 C101.621881,32.4493029 101.508633,32.5159193 101.373178,32.5714338 C101.237722,32.6269483 101.092276,32.670249 100.936836,32.7013371 C100.781395,32.7324252 100.641501,32.747969 100.517148,32.747969 C100.268443,32.747969 100.041947,32.6946759 99.8376539,32.5880881 C99.6333605,32.4815002 99.4590475,32.3416057 99.3147098,32.1684004 C99.1703721,31.9951952 99.0582344,31.7975665 98.9782935,31.5755084 C98.8983526,31.3534504 98.8583828,31.1291751 98.8583828,30.9026759 Z M103.808032,29.0707062 C104.078943,29.0707062 104.314321,29.122889 104.514173,29.2272563 C104.714025,29.3316236 104.878346,29.4704078 105.007139,29.6436131 C105.135933,29.8168183 105.231417,30.014447 105.293593,30.2365051 C105.355769,30.4585631 105.386857,30.6895 105.386857,30.9293227 C105.386857,31.1691454 105.354659,31.4000823 105.290262,31.6221404 C105.225865,31.8441984 105.129271,32.0396066 105.000478,32.2083707 C104.871684,32.3771348 104.707364,32.5125882 104.507511,32.6147349 C104.307659,32.7168816 104.074502,32.7679542 103.808032,32.7679542 C103.541562,32.7679542 103.309515,32.7157713 103.111883,32.611404 C102.914252,32.5070368 102.752152,32.3693628 102.625579,32.1983781 C102.499006,32.0273934 102.404632,31.830875 102.342456,31.608817 C102.28028,31.3867589 102.249192,31.155822 102.249192,30.9159993 C102.249192,30.6761766 102.27917,30.4452397 102.339125,30.2231817 C102.399081,30.0011236 102.492344,29.8046052 102.618917,29.6336205 C102.74549,29.4626358 102.90648,29.3260722 103.101891,29.2239255 C103.297302,29.1217788 103.53268,29.0707062 103.808032,29.0707062 Z M103.808032,32.5014858 C104.007884,32.5014858 104.185528,32.4626263 104.340969,32.384906 C104.496409,32.3071856 104.628532,32.1994891 104.73734,32.0618131 C104.846149,31.9241371 104.929419,31.7598166 104.987154,31.5688467 C105.044889,31.3778768 105.073756,31.1669248 105.073756,30.9359844 C105.073756,30.7050441 105.046,30.4929818 104.990485,30.2997913 C104.934971,30.1066008 104.853921,29.9400598 104.747333,29.8001632 C104.640745,29.6602666 104.507512,29.5503496 104.34763,29.4704087 C104.187748,29.3904678 104.003443,29.3504979 103.794708,29.3504979 C103.585974,29.3504979 103.403889,29.3893575 103.248448,29.4670778 C103.093008,29.5447981 102.964216,29.6536049 102.862069,29.7935015 C102.759923,29.9333981 102.684424,30.0999391 102.635571,30.2931296 C102.586719,30.4863201 102.562292,30.6961618 102.562292,30.922661 C102.562292,31.1491602 102.590049,31.3590019 102.645564,31.5521924 C102.701078,31.7453829 102.782128,31.911924 102.888716,32.0518206 C102.995304,32.1917171 103.125206,32.3016342 103.278426,32.3815751 C103.431646,32.461516 103.60818,32.5014858 103.808032,32.5014858 Z M110.716223,30.4963117 C110.716223,30.1365777 110.637394,29.8645606 110.479733,29.6802525 C110.322071,29.4959443 110.107789,29.4037916 109.836878,29.4037916 C109.694761,29.4037916 109.561528,29.4259971 109.437175,29.4704087 C109.312823,29.5148203 109.201795,29.5847675 109.10409,29.6802525 C109.006384,29.7757374 108.929775,29.8978675 108.874261,30.0466464 C108.818746,30.1954253 108.79099,30.3741793 108.79099,30.5829139 L108.79099,32.4548539 C108.79099,32.5347948 108.779887,32.5903085 108.757681,32.6213966 C108.735475,32.6524847 108.695505,32.6680286 108.63777,32.6680286 C108.580035,32.6680286 108.540065,32.6524847 108.51786,32.6213966 C108.495654,32.5903085 108.484551,32.5347948 108.484551,32.4548539 L108.484551,30.7561183 C108.484551,30.5340603 108.469007,30.3375419 108.437919,30.1665572 C108.406831,29.9955725 108.353538,29.8534574 108.278038,29.7402078 C108.202538,29.6269582 108.102614,29.5414672 107.978261,29.4837321 C107.853909,29.425997 107.69625,29.3971299 107.50528,29.3971299 C107.38981,29.3971299 107.272121,29.4171148 107.152209,29.4570852 C107.032298,29.4970557 106.923491,29.5636721 106.825786,29.6569365 C106.72808,29.7502009 106.64703,29.8712207 106.582633,30.0199996 C106.518237,30.1687785 106.486039,30.3519736 106.486039,30.5695905 L106.486039,32.4548539 C106.486039,32.5347948 106.474936,32.5903085 106.45273,32.6213966 C106.430524,32.6524847 106.390554,32.6680286 106.332819,32.6680286 C106.275084,32.6680286 106.235114,32.6524847 106.212909,32.6213966 C106.190703,32.5903085 106.1796,32.5347948 106.1796,32.4548539 L106.1796,29.3504979 C106.1796,29.270557 106.191813,29.2150433 106.216239,29.1839552 C106.240666,29.1528671 106.279525,29.1373233 106.332819,29.1373233 C106.434966,29.1373233 106.486039,29.2083808 106.486039,29.3504979 L106.486039,29.7435387 C106.521568,29.6502743 106.577082,29.5647832 106.652581,29.4870629 C106.728081,29.4093426 106.814682,29.3427262 106.912388,29.2872117 C107.010093,29.2316972 107.112239,29.1883965 107.218826,29.1573084 C107.325414,29.1262203 107.42978,29.1106764 107.531927,29.1106764 C107.81172,29.1106764 108.05487,29.1661901 108.261384,29.2772191 C108.467898,29.3882481 108.608903,29.5570097 108.684402,29.7835089 C108.799872,29.5836567 108.958642,29.4215568 109.160714,29.2972042 C109.362787,29.1728517 109.597055,29.1106764 109.863525,29.1106764 C110.027848,29.1106764 110.181065,29.1351024 110.323182,29.1839552 C110.4653,29.232808 110.58743,29.3071963 110.689576,29.4071224 C110.791723,29.5070486 110.872773,29.6313992 110.932729,29.7801781 C110.992684,29.928957 111.022662,30.1032699 111.022662,30.3031222 L111.022662,32.4548539 C111.022662,32.596971 110.971589,32.6680286 110.869443,32.6680286 C110.767296,32.6680286 110.716223,32.596971 110.716223,32.4548539 L110.716223,30.4963117 Z" id="www.dazhao100.com" fill="#394A58"></path>
            </g>
        </g>
    </g>
</svg>