<?xml version="1.0" encoding="UTF-8"?>
<svg width="23px" height="23px" viewBox="0 0 23 23" version="1.1" xmlns="http://www.w3.org/2000/svg" xmlns:xlink="http://www.w3.org/1999/xlink">
    <!-- Generator: Sketch 45.2 (43514) - http://www.bohemiancoding.com/sketch -->
    <title>收藏</title>
    <desc>Created with Sketch.</desc>
    <defs></defs>
    <g id="UI" stroke="none" stroke-width="1" fill="none" fill-rule="evenodd">
        <g id="查看回答" transform="translate(-223.000000, -624.000000)" fill="#666666">
            <g id="Page-1" transform="translate(0.000000, 617.000000)">
                <g id="Group-15" transform="translate(36.000000, 7.500000)">
                    <path d="M208.20265,9.2072 L203.53215,13.2412 C203.31715,13.4267 203.28765,13.7467 203.45965,13.9682 C203.40415,14.0737 203.38365,14.1982 203.41015,14.3237 L204.66715,20.3267 C204.81265,21.0217 204.68615,21.1122 204.07915,20.7462 L198.79165,17.5597 C198.66115,17.4812 198.51115,17.4652 198.37515,17.5027 C198.23915,17.4652 198.08865,17.4812 197.95815,17.5597 L192.67115,20.7462 C192.06415,21.1122 191.93715,21.0217 192.08265,20.3267 L193.34015,14.3237 C193.36615,14.1982 193.34615,14.0737 193.29065,13.9682 C193.46265,13.7467 193.43315,13.4267 193.21815,13.2412 L188.54715,9.2072 C188.01115,8.7442 188.05765,8.5962 188.76565,8.5197 L194.87415,7.8577 C195.07065,7.8367 195.22965,7.7112 195.30415,7.5437 C195.46015,7.5037 195.59665,7.3947 195.66415,7.2352 L198.06515,1.5552 C198.18365,1.2742 198.28015,1.1147 198.37515,1.0757 C198.46965,1.1147 198.56615,1.2742 198.68465,1.5552 L201.08565,7.2352 C201.15315,7.3947 201.28965,7.5037 201.44565,7.5437 C201.52015,7.7112 201.67965,7.8367 201.87565,7.8577 L207.98415,8.5197 C208.69215,8.5962 208.73865,8.7442 208.20265,9.2072 M208.09915,7.4612 L202.06215,6.8077 L199.66765,1.1417 C199.35865,0.4107 198.87865,0.0307 198.38965,0.0032 L198.38965,0.0017 C198.38465,0.0017 198.37965,0.0022 198.37515,0.0022 C198.37015,0.0022 198.36565,0.0017 198.36065,0.0017 L198.36065,0.0032 C197.87115,0.0307 197.39165,0.4107 197.08265,1.1417 L194.68765,6.8077 L188.65065,7.4612 C187.01815,7.6382 186.60815,8.9397 187.84965,10.0117 L192.37465,13.9202 C192.33815,13.9752 192.31065,14.0377 192.29615,14.1062 L191.03915,20.1087 C190.70315,21.7132 191.81715,22.5042 193.22215,21.6572 L197.97515,18.7927 C197.99265,18.7847 198.01015,18.7757 198.02715,18.7657 L198.37515,18.5567 L198.72265,18.7657 C198.73965,18.7757 198.75715,18.7847 198.77515,18.7927 L203.52815,21.6572 C204.93315,22.5042 206.04665,21.7132 205.71115,20.1087 L204.45365,14.1062 C204.43965,14.0377 204.41215,13.9752 204.37565,13.9202 L208.90065,10.0117 C210.14165,8.9397 209.73215,7.6382 208.09915,7.4612" id="收藏"></path>
                </g>
            </g>
        </g>
    </g>
</svg>