<?xml version="1.0" encoding="UTF-8"?>
<svg width="23px" height="22px" viewBox="0 0 23 22" version="1.1" xmlns="http://www.w3.org/2000/svg" xmlns:xlink="http://www.w3.org/1999/xlink">
    <!-- Generator: Sketch 45.2 (43514) - http://www.bohemiancoding.com/sketch -->
    <title>没有帮助</title>
    <desc>Created with Sketch.</desc>
    <defs></defs>
    <g id="UI" stroke="none" stroke-width="1" fill="none" fill-rule="evenodd">
        <g id="查看回答" transform="translate(-317.000000, -625.000000)" fill="#666666">
            <g id="Page-1" transform="translate(0.000000, 617.000000)">
                <g id="Group-15" transform="translate(36.000000, 7.500000)">
                    <path d="M292.125,21.4423 C286.634,21.4423 282.1825,16.9908 282.1825,11.4998 C282.1825,6.0088 286.634,1.5573 292.125,1.5573 C297.616,1.5573 302.0675,6.0088 302.0675,11.4998 C302.0675,16.9908 297.616,21.4423 292.125,21.4423 M292.125,0.4998 C286.05,0.4998 281.125,5.4248 281.125,11.4998 C281.125,17.5753 286.05,22.4998 292.125,22.4998 C298.2,22.4998 303.125,17.5753 303.125,11.4998 C303.125,5.4248 298.2,0.4998 292.125,0.4998 M289.17385,9.49455 C289.17385,9.49455 289.23135,10.00055 289.79685,10.00055 C290.36235,10.00055 290.39585,9.49455 290.39585,9.49455 C290.35835,7.85605 291.11735,7.07755 292.67185,7.15505 C293.70635,7.27155 294.24285,7.85605 294.27835,8.90855 C294.20685,9.37755 293.81385,9.98405 293.11485,10.72405 C292.18985,11.66055 291.72685,12.49855 291.72685,13.23905 L291.72685,13.99855 C291.72685,13.99855 291.79785,14.45105 292.30935,14.45105 C292.82085,14.45105 292.89185,13.99855 292.89185,13.99855 L292.89185,13.47105 C292.89185,12.85255 293.33485,12.10905 294.22285,11.24805 C295.15185,10.39255 295.61285,9.61105 295.61285,8.90855 C295.53635,6.96105 294.52135,5.94555 292.55935,5.86655 C290.30285,5.82855 289.17385,7.03805 289.17385,9.49455 M292.57785,15.35455 C292.98285,15.35455 293.31085,15.68205 293.31085,16.08705 L293.31085,16.28105 C293.31085,16.68555 292.98535,17.01355 292.57785,17.01355 C292.17335,17.01355 291.84485,16.68555 291.84485,16.28105 L291.84485,16.08705 C291.84485,15.68255 292.17035,15.35455 292.57785,15.35455" id="没有帮助"></path>
                </g>
            </g>
        </g>
    </g>
</svg>