<?xml version="1.0" encoding="UTF-8"?>
<svg width="23px" height="21px" viewBox="0 0 23 21" version="1.1" xmlns="http://www.w3.org/2000/svg" xmlns:xlink="http://www.w3.org/1999/xlink">
    <!-- Generator: Sketch 45.2 (43514) - http://www.bohemiancoding.com/sketch -->
    <title>评论</title>
    <desc>Created with Sketch.</desc>
    <defs></defs>
    <g id="UI" stroke="none" stroke-width="1" fill="none" fill-rule="evenodd">
        <g id="查看回答" transform="translate(-129.000000, -626.000000)" fill="#666666">
            <g id="Page-1" transform="translate(0.000000, 617.000000)">
                <g id="Group-15" transform="translate(36.000000, 7.500000)">
                    <path d="M112.5659,1.75165 L96.1839,1.75165 C94.6324,1.75165 93.3749,3.00615 93.3749,4.55365 L93.3749,16.09315 C93.3749,17.64015 94.6324,18.89465 96.1839,18.89465 L98.1684,18.89465 L98.1684,20.91015 C98.1684,21.69915 98.8179,22.25165 99.5154,22.25165 C99.7704,22.25165 100.0319,22.17765 100.2704,22.01465 L104.8334,18.89465 L112.5659,18.89465 C114.1174,18.89465 115.3749,17.64015 115.3749,16.09315 L115.3749,4.55365 C115.3749,3.00615 114.1174,1.75165 112.5659,1.75165 M112.5659,2.90365 C113.4779,2.90365 114.2204,3.64365 114.2204,4.55365 L114.2204,16.09315 C114.2204,17.00265 113.4779,17.74265 112.5659,17.74265 L104.8334,17.74265 L104.4754,17.74265 L104.1804,17.94465 L99.6179,21.06465 C99.5824,21.08865 99.5499,21.09965 99.5154,21.09965 C99.4749,21.09965 99.3234,21.06765 99.3234,20.91015 L99.3234,18.89465 L99.3234,17.74265 L98.1684,17.74265 L96.1839,17.74265 C95.2719,17.74265 94.5299,17.00265 94.5299,16.09315 L94.5299,4.55365 C94.5299,3.64365 95.2719,2.90365 96.1839,2.90365 L112.5659,2.90365 M109.1699,10.32315 C109.1699,9.69215 109.6749,9.18015 110.2979,9.18015 C110.9209,9.18015 111.4264,9.69215 111.4264,10.32315 C111.4264,10.95415 110.9209,11.46615 110.2979,11.46615 C109.6749,11.46615 109.1699,10.95415 109.1699,10.32315 M112.5544,10.32315 C112.5544,9.06065 111.5444,8.03765 110.2979,8.03765 C109.0519,8.03765 108.0419,9.06065 108.0419,10.32315 C108.0419,11.58565 109.0519,12.60865 110.2979,12.60865 C111.5444,12.60865 112.5544,11.58565 112.5544,10.32315 M103.5289,10.32315 C103.5289,9.69215 104.0339,9.18015 104.6569,9.18015 C105.2799,9.18015 105.7849,9.69215 105.7849,10.32315 C105.7849,10.95415 105.2799,11.46615 104.6569,11.46615 C104.0339,11.46615 103.5289,10.95415 103.5289,10.32315 M106.9134,10.32315 C106.9134,9.06065 105.9034,8.03765 104.6569,8.03765 C103.4109,8.03765 102.4004,9.06065 102.4004,10.32315 C102.4004,11.58565 103.4109,12.60865 104.6569,12.60865 C105.9034,12.60865 106.9134,11.58565 106.9134,10.32315 M97.8879,10.32315 C97.8879,9.69215 98.3929,9.18015 99.0159,9.18015 C99.6389,9.18015 100.1444,9.69215 100.1444,10.32315 C100.1444,10.95415 99.6389,11.46615 99.0159,11.46615 C98.3929,11.46615 97.8879,10.95415 97.8879,10.32315 M101.2724,10.32315 C101.2724,9.06065 100.2624,8.03765 99.0159,8.03765 C97.7699,8.03765 96.7594,9.06065 96.7594,10.32315 C96.7594,11.58565 97.7699,12.60865 99.0159,12.60865 C100.2624,12.60865 101.2724,11.58565 101.2724,10.32315" id="评论"></path>
                </g>
            </g>
        </g>
    </g>
</svg>