<?xml version="1.0" encoding="UTF-8"?>
<svg width="22px" height="21px" viewBox="0 0 22 21" version="1.1" xmlns="http://www.w3.org/2000/svg" xmlns:xlink="http://www.w3.org/1999/xlink">
    <!-- Generator: Sketch 45.2 (43514) - http://www.bohemiancoding.com/sketch -->
    <title>赞同</title>
    <desc>Created with Sketch.</desc>
    <defs></defs>
    <g id="UI" stroke="none" stroke-width="1" fill="none" fill-rule="evenodd">
        <g id="查看回答" transform="translate(-36.000000, -625.000000)" fill="#666666">
            <g id="Page-1" transform="translate(0.000000, 617.000000)">
                <g id="Group-15" transform="translate(36.000000, 7.500000)">
                    <path d="M19.8821,11.99775 C20.2121,11.43025 20.1936,10.72575 19.8326,10.11425 C19.3921,9.36625 18.5631,8.91925 17.6161,8.91925 C15.9391,8.91925 14.0056,8.97625 13.9871,8.97625 C13.8196,8.98225 13.6881,8.91775 13.5896,8.80425 C13.4901,8.69075 13.4491,8.53925 13.4761,8.39225 C13.4831,8.35775 14.1141,4.94575 14.1141,3.44625 C14.1141,1.90825 12.9451,1.74275 12.4441,1.74275 C11.6516,1.74275 11.0071,2.58425 11.0071,3.62025 C11.0071,4.90725 11.0071,5.34125 10.3256,6.28075 C9.3851,7.57725 7.6091,9.75225 6.2716,9.75225 L5.4236,9.75225 L5.4236,20.25775 L15.4996,20.25775 C16.9476,20.25775 17.6471,19.47325 17.9776,18.81575 C17.9941,18.77575 17.9996,18.73925 18.0081,18.69575 C18.0706,18.38225 18.1766,17.85475 18.8726,17.02275 C19.3746,16.42225 19.2886,15.78425 19.1876,15.04625 C19.1556,14.81175 19.1241,14.57925 19.1111,14.34825 C19.0531,13.36325 19.3121,12.93775 19.6716,12.34825 C19.7366,12.24225 19.8071,12.12675 19.8821,11.99775 Z M1.1321,19.36375 C1.1321,19.85725 1.5396,20.25825 2.0396,20.25825 L4.3751,20.25825 C4.3796,20.25825 4.3836,20.25775 4.3886,20.25775 L4.4171,20.25775 L4.4171,9.75275 L2.0396,9.75275 C1.5396,9.75275 1.1321,10.15325 1.1321,10.64625 L1.1321,19.36375 Z M20.7036,9.61725 C21.2461,10.53825 21.2661,11.61275 20.7566,12.49075 C20.6771,12.62675 20.6036,12.74775 20.5356,12.85975 C20.2016,13.40675 20.0761,13.61125 20.1161,14.29075 C20.1286,14.49675 20.1581,14.70575 20.1856,14.91425 C20.2951,15.71775 20.4316,16.71725 19.6501,17.65225 C19.1156,18.29175 19.0436,18.65075 18.9956,18.88775 C18.9726,19.00125 18.9486,19.11875 18.8891,19.23725 C18.2326,20.54025 17.0321,21.24875 15.4996,21.24875 L12.1391,21.24875 C12.1226,21.25075 12.1056,21.25175 12.0886,21.25175 L4.3886,21.25175 C4.3696,21.25175 4.3511,21.25025 4.3331,21.24825 L2.0396,21.24825 C0.9846,21.24825 0.1251,20.40275 0.1251,19.36275 L0.1251,10.64625 C0.1251,9.60725 0.9836,8.76125 2.0396,8.76125 L6.2721,8.76125 C6.8711,8.76125 8.2021,7.50475 9.5061,5.70575 C10.0006,5.02475 10.0006,4.86475 10.0006,3.62075 C10.0006,2.01125 11.0731,0.75175 12.4436,0.75175 C13.6786,0.75175 15.1211,1.45775 15.1211,3.44675 C15.1211,4.65225 14.7596,6.89525 14.5736,7.97075 C15.2876,7.95375 16.5071,7.92875 17.6161,7.92875 C18.9256,7.92875 20.0811,8.55975 20.7036,9.61725 Z" id="赞同"></path>
                </g>
            </g>
        </g>
    </g>
</svg>